<?xml version="1.0" encoding="utf-8"?>
<svg width="192px" height="192px" viewBox="0 0 192 192" version="1.1" xmlns:xlink="http://www.w3.org/1999/xlink" xmlns="http://www.w3.org/2000/svg">
  <defs>
    <path d="M192 0L192 0L192 192L0 192L0 0L192 0Z" id="path_1" />
    <clipPath id="clip_1">
      <use xlink:href="#path_1" clip-rule="evenodd" fill-rule="evenodd" />
    </clipPath>
  </defs>
  <g id="iPad Pro App" clip-path="url(#clip_1)">
    <path d="M192 0L192 0L192 192L0 192L0 0L192 0Z" id="iPad-Pro-App" fill="#FFFFFF" fill-opacity="0" stroke="none" />
    <path d="M172 0C183.047 0 192 8.9528 192 20L192 172C192 183.047 183.047 192 172 192L20 192C8.9528 192 0 183.047 0 172L0 20C0 8.9528 8.9528 0 20 0L172 0Z" id="Rectangle" fill="#002447" stroke="none" />
    <g id="taxi-svgrepo-com" clip-path="url(#clip_1)">
      <path d="M192 0L192 0L192 192L0 192L0 0L192 0Z" id="taxi-svgrepo-com" fill="none" stroke="none" />
      <path d="M116 48C116 50.2091 114.209 52 112 52L80 52C77.7908 52 76 50.2091 76 48L76 36C76 33.7909 77.7908 32 80 32L112 32C114.209 32 116 33.7909 116 36L116 48L116 48Z" id="Shape" fill="#FFEB3B" stroke="none" />
      <path d="M76 40L84 40L84 48L76 48L76 40ZM84 32L92 32L92 40L84 40L84 32ZM92 40L100 40L100 48L92 48L92 40ZM100 32L108 32L108 40L100 40L100 32ZM108 40L116 40L116 48L108 48L108 40Z" id="Shape" fill="#455A64" fill-rule="evenodd" stroke="none" />
      <path d="M44 128C44 125.791 42.2091 124 40 124L24 124C21.7908 124 20 125.791 20 128L20 152C20 154.209 21.7908 156 24 156L40 156C42.2091 156 44 154.209 44 152L44 128L44 128ZM172 128C172 125.791 170.209 124 168 124L152 124C149.791 124 148 125.791 148 128L148 152C148 154.209 149.791 156 152 156L168 156C170.209 156 172 154.209 172 152L172 128L172 128Z" id="Shape" fill="#795548" fill-rule="evenodd" stroke="none" />
      <path d="M176 88L160.444 88C160.444 88 145.128 57.96 144 56C141.76 52.108 140 48 132 48L60 48C52 48 50.564 52 48 56C46.576 58.228 31.48 88 31.48 88L16 88C13.7909 88 12 89.7908 12 92L12 100C12 102.209 13.7909 104 16 104L176 104C178.209 104 180 102.209 180 100L180 92C180 89.7908 178.209 88 176 88L176 88Z" id="Shape" fill="#FFC107" stroke="none" />
      <path d="M164 92C164 92 128 88 96 88C64 88 28 92 28 92C23.584 92 20 99.584 20 104L20 136C20 138.209 21.7908 140 24 140L168 140C170.209 140 172 138.209 172 136L172 104C172 99.584 168.416 92 164 92L164 92Z" id="Shape" fill="#FFC107" stroke="none" />
      <path d="M96 88C117.084 88 139.84 89.732 152.956 90.916C147.124 79.484 137.948 61.556 137.056 59.976L136.6 59.172C134.808 56 134.808 56 132 56L60 56C57.384 56 57.384 56 55.656 58.836C55.356 59.324 55.056 59.82 54.74 60.316C53.72 62.012 45.912 77.232 38.972 90.924C52.072 89.74 74.876 88 96 88L96 88Z" id="Shape" fill="#546E7A" stroke="none" />
      <path d="M164 120C164 122.209 162.209 124 160 124L32 124C29.7909 124 28 122.209 28 120L28 108C28 105.791 29.7909 104 32 104L160 104C162.209 104 164 105.791 164 108L164 120L164 120Z" id="Shape" fill="#37474F" stroke="none" />
      <path d="M32 114C32 117.314 34.6863 120 38 120C41.3137 120 44 117.314 44 114C44 110.686 41.3137 108 38 108C34.6863 108 32 110.686 32 114L32 114Z" id="Shape" fill="#4DD0E1" stroke="none" />
      <path d="M148 114C148 117.314 150.686 120 154 120C157.314 120 160 117.314 160 114C160 110.686 157.314 108 154 108C150.686 108 148 110.686 148 114L148 114Z" id="Shape" fill="#4DD0E1" stroke="none" />
    </g>
  </g>
</svg>